<svg id="Layer_1" data-name="Layer 1" xmlns="http://www.w3.org/2000/svg" viewBox="0 0 572.94 126.21"><defs><style>.cls-1{fill:#737bfe;}</style></defs><title>adderall-logo</title><path class="cls-1" d="M230,168.42a27.08,27.08,0,0,1,5.8-8.59,26.72,26.72,0,0,1,8.7-5.81,27.06,27.06,0,0,1,10.6-2.1,26.39,26.39,0,0,1,10.5,2.1,27.26,27.26,0,0,1,14.4,14.4,25.65,25.65,0,0,1,2,8.58h17.83a43.14,43.14,0,0,0-3.46-15.58,45.25,45.25,0,0,0-23.8-23.8,45.25,45.25,0,0,0-34.9,0,46.18,46.18,0,0,0-14.4,9.61,44.18,44.18,0,0,0-9.7,14.19A42.93,42.93,0,0,0,210.15,177H228A25.65,25.65,0,0,1,230,168.42Z" transform="translate(-210.15 -98.12)"/><path class="cls-1" d="M282.11,206.12h-27a27.2,27.2,0,0,1-19.3-7.89,26.91,26.91,0,0,1-5.8-8.7,26.21,26.21,0,0,1-1.64-5.53h-18a43,43,0,0,0,3.22,12.33,45.29,45.29,0,0,0,24.1,24.09,43.7,43.7,0,0,0,17.4,3.5h44.8V184h-17.8Z" transform="translate(-210.15 -98.12)"/><path class="cls-1" d="M377.31,134.12h-27a43.87,43.87,0,0,0-17.4,3.5,46.18,46.18,0,0,0-14.4,9.61,44.18,44.18,0,0,0-9.7,14.19A42.93,42.93,0,0,0,305.35,177h17.83a25.65,25.65,0,0,1,2-8.58,27.08,27.08,0,0,1,5.8-8.59,26.72,26.72,0,0,1,8.7-5.81,27.06,27.06,0,0,1,10.6-2.1h27V177h17.8V98.12h-17.8Z" transform="translate(-210.15 -98.12)"/><path class="cls-1" d="M375.21,189.53a27.07,27.07,0,0,1-5.8,8.7,27.58,27.58,0,0,1-8.6,5.8,26.56,26.56,0,0,1-10.5,2.09,27.2,27.2,0,0,1-19.3-7.89,26.91,26.91,0,0,1-5.8-8.7,26.21,26.21,0,0,1-1.64-5.53h-18a43,43,0,0,0,3.22,12.33,45.29,45.29,0,0,0,24.1,24.09,45,45,0,0,0,34.8,0,44.24,44.24,0,0,0,14.3-9.69,46.55,46.55,0,0,0,9.6-14.4A43.31,43.31,0,0,0,394.83,184h-18A26.21,26.21,0,0,1,375.21,189.53Z" transform="translate(-210.15 -98.12)"/><path class="cls-1" d="M471.4,189.53a26.91,26.91,0,0,1-5.8,8.7A27.35,27.35,0,0,1,457,204a26.49,26.49,0,0,1-10.5,2.09,26.85,26.85,0,0,1-25.1-16.59,26.21,26.21,0,0,1-1.64-5.53h-18A43.31,43.31,0,0,0,405,196.33a45.29,45.29,0,0,0,24.1,24.09,44.61,44.61,0,0,0,49.1-9.69,46.21,46.21,0,0,0,9.6-14.4A43,43,0,0,0,491,184H473A26.21,26.21,0,0,1,471.4,189.53Z" transform="translate(-210.15 -98.12)"/><path class="cls-1" d="M473.5,134.12h-27a43.94,43.94,0,0,0-17.4,3.5,46.41,46.41,0,0,0-14.4,9.61,44.5,44.5,0,0,0-9.7,14.19A43.14,43.14,0,0,0,401.54,177h17.83a25.65,25.65,0,0,1,2-8.58,27.25,27.25,0,0,1,5.8-8.59,27.22,27.22,0,0,1,19.3-7.91h27V177h17.8V98.12H473.5Z" transform="translate(-210.15 -98.12)"/><path class="cls-1" d="M559.4,137.83a44.8,44.8,0,0,0-33.8,0,43.71,43.71,0,0,0-14.9,9.9,42.71,42.71,0,0,0-9.8,14.79A46.14,46.14,0,0,0,497.76,177H515.4a27.23,27.23,0,0,1,22.8-24.48,26.91,26.91,0,0,1,16.1,2.6q-2.81,2.81-7.9,7.8t-10.6,10.5L532.23,177h25.19l23.08-23.08-6.2-6.19A43.71,43.71,0,0,0,559.4,137.83Z" transform="translate(-210.15 -98.12)"/><path class="cls-1" d="M561.7,198.53a26.64,26.64,0,0,1-31,5.2L550.43,184h-25.2l-7.13,7.12a26.22,26.22,0,0,1-2.39-7.12H497.94a47.35,47.35,0,0,0,3,12.23,42.45,42.45,0,0,0,9.8,14.89,44.83,44.83,0,0,0,63.6,0l6.2-6.2-12.6-12.59Z" transform="translate(-210.15 -98.12)"/><rect class="cls-1" x="376.35" y="85.88" width="18" height="39.92"/><path class="cls-1" d="M614.1,137.62a46.18,46.18,0,0,0-14.4,9.61,44.34,44.34,0,0,0-9.7,14.19A43.14,43.14,0,0,0,586.54,177h18a25.65,25.65,0,0,1,2-8.58A27.26,27.26,0,0,1,621,154a26.39,26.39,0,0,1,10.5-2.1h9v-17.8h-9A43.94,43.94,0,0,0,614.1,137.62Z" transform="translate(-210.15 -98.12)"/><path class="cls-1" d="M717.5,206.12h-27a27.2,27.2,0,0,1-19.3-7.89,26.91,26.91,0,0,1-5.8-8.7,26.21,26.21,0,0,1-1.64-5.53h-18A43,43,0,0,0,649,196.33a45.29,45.29,0,0,0,24.1,24.09,43.7,43.7,0,0,0,17.4,3.5h44.8V184H717.5Z" transform="translate(-210.15 -98.12)"/><path class="cls-1" d="M665.4,168.42a27.08,27.08,0,0,1,5.8-8.59,26.72,26.72,0,0,1,8.7-5.81,27.06,27.06,0,0,1,10.6-2.1A26.39,26.39,0,0,1,701,154a27.26,27.26,0,0,1,14.4,14.4,25.65,25.65,0,0,1,2,8.58h17.83a43.14,43.14,0,0,0-3.46-15.58,45.25,45.25,0,0,0-23.8-23.8,45.25,45.25,0,0,0-34.9,0,46.18,46.18,0,0,0-14.4,9.61,44.18,44.18,0,0,0-9.7,14.19A42.93,42.93,0,0,0,645.54,177h17.83A25.65,25.65,0,0,1,665.4,168.42Z" transform="translate(-210.15 -98.12)"/><rect class="cls-1" x="530.55" width="17.8" height="78.88"/><rect class="cls-1" x="530.55" y="85.88" width="17.8" height="39.92"/><rect class="cls-1" x="555.14" width="17.8" height="78.88"/><rect class="cls-1" x="555.14" y="85.88" width="17.8" height="39.92"/></svg>